[Header]
FileType HTR
DataType HTRS
FileVersion 1
NumSegments 64
NumFrames 3
DataFrameRate 30
EulerRotationOrder ZYX
CalibrationUnits mm
RotationUnits Degrees
GlobalAxisofGravity Y
BoneLengthAxis Y
ScaleFactor 1.0
[SegmentNames&Hierarchy]
Hips	GLOBAL
Spine	Hips
Spine1	Spine
Spine2	Spine1
Neck	Spine2
Head	Neck
LeftEye	Head
RightEye	Head
LeftShoulder	Spine2
LeftArm	LeftShoulder
LeftForeArm	LeftArm
LeftHand	LeftForeArm
LeftHandThumb1	LeftHand
LeftHandThumb2	LeftHandThumb1
LeftHandThumb3	LeftHandThumb2
LeftHandThumb4	LeftHandThumb3
LeftHandIndex1	LeftHand
LeftHandIndex2	LeftHandIndex1
LeftHandIndex3	LeftHandIndex2
LeftHandIndex4	LeftHandIndex3
LeftHandMiddle1	LeftHand
LeftHandMiddle2	LeftHandMiddle1
LeftHandMiddle3	LeftHandMiddle2
LeftHandMiddle4	LeftHandMiddle3
LeftHandRing1	LeftHand
LeftHandRing2	LeftHandRing1
LeftHandRing3	LeftHandRing2
LeftHandRing4	LeftHandRing3
LeftHandPinky1	LeftHand
LeftHandPinky2	LeftHandPinky1
LeftHandPinky3	LeftHandPinky2
LeftHandPinky4	LeftHandPinky3
RightShoulder	Spine2
RightArm	RightShoulder
RightForeArm	RightArm
RightHand	RightForeArm
RightHandPinky1	RightHand
RightHandPinky2	RightHandPinky1
RightHandPinky3	RightHandPinky2
RightHandPinky4	RightHandPinky3
RightHandRing1	RightHand
RightHandRing2	RightHandRing1
RightHandRing3	RightHandRing2
RightHandRing4	RightHandRing3
RightHandMiddle1	RightHand
RightHandMiddle2	RightHandMiddle1
RightHandMiddle3	RightHandMiddle2
RightHandMiddle4	RightHandMiddle3
RightHandIndex1	RightHand
RightHandIndex2	RightHandIndex1
RightHandIndex3	RightHandIndex2
RightHandIndex4	RightHandIndex3
RightHandThumb1	RightHand
RightHandThumb2	RightHandThumb1
RightHandThumb3	RightHandThumb2
RightHandThumb4	RightHandThumb3
LeftUpLeg	Hips
LeftLeg	LeftUpLeg
LeftFoot	LeftLeg
LeftToeBase	LeftFoot
RightUpLeg	Hips
RightLeg	RightUpLeg
RightFoot	RightLeg
RightToeBase	RightFoot
[BasePosition]
Hips	0	0	0	0	0	0	1
Spine	0	0	0	0	0	0	1
Spine1	0	0	0	0	0	0	1
Spine2	0	0	0	0	0	0	1
Neck	0	0	0	0	0	0	1
Head	0	0	0	0	0	0	1
LeftEye	0	0	0	0	0	0	1
RightEye	0	0	0	0	0	0	1
LeftShoulder	0	0	0	0	0	0	1
LeftArm	0	0	0	0	0	0	1
LeftForeArm	0	0	0	0	0	0	1
LeftHand	0	0	0	0	0	0	1
LeftHandThumb1	0	0	0	0	0	0	1
LeftHandThumb2	0	0	0	0	0	0	1
LeftHandThumb3	0	0	0	0	0	0	1
LeftHandThumb4	0	0	0	0	0	0	1
LeftHandIndex1	0	0	0	0	0	0	1
LeftHandIndex2	0	0	0	0	0	0	1
LeftHandIndex3	0	0	0	0	0	0	1
LeftHandIndex4	0	0	0	0	0	0	1
LeftHandMiddle1	0	0	0	0	0	0	1
LeftHandMiddle2	0	0	0	0	0	0	1
LeftHandMiddle3	0	0	0	0	0	0	1
LeftHandMiddle4	0	0	0	0	0	0	1
LeftHandRing1	0	0	0	0	0	0	1
LeftHandRing2	0	0	0	0	0	0	1
LeftHandRing3	0	0	0	0	0	0	1
LeftHandRing4	0	0	0	0	0	0	1
LeftHandPinky1	0	0	0	0	0	0	1
LeftHandPinky2	0	0	0	0	0	0	1
LeftHandPinky3	0	0	0	0	0	0	1
LeftHandPinky4	0	0	0	0	0	0	1
RightShoulder	0	0	0	0	0	0	1
RightArm	0	0	0	0	0	0	1
RightForeArm	0	0	0	0	0	0	1
RightHand	0	0	0	0	0	0	1
RightHandPinky1	0	0	0	0	0	0	1
RightHandPinky2	0	0	0	0	0	0	1
RightHandPinky3	0	0	0	0	0	0	1
RightHandPinky4	0	0	0	0	0	0	1
RightHandRing1	0	0	0	0	0	0	1
RightHandRing2	0	0	0	0	0	0	1
RightHandRing3	0	0	0	0	0	0	1
RightHandRing4	0	0	0	0	0	0	1
RightHandMiddle1	0	0	0	0	0	0	1
RightHandMiddle2	0	0	0	0	0	0	1
RightHandMiddle3	0	0	0	0	0	0	1
RightHandMiddle4	0	0	0	0	0	0	1
RightHandIndex1	0	0	0	0	0	0	1
RightHandIndex2	0	0	0	0	0	0	1
RightHandIndex3	0	0	0	0	0	0	1
RightHandIndex4	0	0	0	0	0	0	1
RightHandThumb1	0	0	0	0	0	0	1
RightHandThumb2	0	0	0	0	0	0	1
RightHandThumb3	0	0	0	0	0	0	1
RightHandThumb4	0	0	0	0	0	0	1
LeftUpLeg	0	0	0	0	0	0	1
LeftLeg	0	0	0	0	0	0	1
LeftFoot	0	0	0	0	0	0	1
LeftToeBase	0	0	0	0	0	0	1
RightUpLeg	0	0	0	0	0	0	1
RightLeg	0	0	0	0	0	0	1
RightFoot	0	0	0	0	0	0	1
RightToeBase	0	0	0	0	0	0	1
[Hips]
12	648.7224121	931.413208	7.166215897	7.548017502	60.79190826	1.453918695	1.0
13	706.730835	939.6786499	4.534205914	9.275485992	60.39838028	3.800786972	1.0
14	763.4209595	953.9598389	3.138513088	9.982696533	60.92126083	4.968762398	1.0
[Spine]
12	0	101.8159943	1.315000057	5.477880001	-2.533911467	-3.086155176	1.0
13	0	101.8159943	1.315000057	5.697338581	-2.892445564	-3.897707462	1.0
14	0	101.8159943	1.315000057	5.839303493	-3.806358814	-3.907073736	1.0
[Spine1]
12	0	100.8349991	-10.00800037	4.074581623	-3.423110723	-1.087196708	1.0
13	0	100.8349991	-10.00800037	4.198167324	-3.37682724	-1.451209903	1.0
14	0	100.8349991	-10.00800037	4.238503456	-3.666780949	-1.372693777	1.0
[Spine2]
12	0	91	-13.73399925	4.042378902	-3.456211329	-1.12267673	1.0
13	0	91	-13.73399925	4.168106079	-3.406491756	-1.482872128	1.0
14	0	91	-13.73399925	4.212468147	-3.688125849	-1.399957538	1.0
[Neck]
12	0	166.7169952	-25.16200066	3.875663757	-6.016335011	-1.163992167	1.0
13	0	166.7169952	-25.16200066	3.80636096	-5.889997482	-1.281099081	1.0
14	0	166.7169952	-25.16200066	3.871032476	-5.69244051	-1.600442052	1.0
[Head]
12	0	96.17900085	16.84999847	-15.02298737	-34.73807526	18.27108765	1.0
13	0	96.17900085	16.84999847	-15.33647442	-34.19166946	18.176054	1.0
14	0	96.17900085	16.84999847	-14.55353355	-33.63845825	16.69568443	1.0
[LeftEye]
12	30.6760006	64.09500122	92.83599854	0	0	0	1.0
13	30.6760006	64.09500122	92.83599854	0	0	0	1.0
14	30.6760006	64.09500122	92.83599854	0	0	0	1.0
[RightEye]
12	-30.6760006	64.09500122	92.83499908	0	0	0	1.0
13	-30.6760006	64.09500122	92.83499908	0	0	0	1.0
14	-30.6760006	64.09500122	92.83499908	0	0	0	1.0
[LeftShoulder]
12	45.70400238	109.4599991	-26.28000069	1.840282202	-3.42914772	-10.0620842	1.0
13	45.70400238	109.4599991	-26.28000069	1.433968663	-3.984821796	-10.14131832	1.0
14	45.70400238	109.4599991	-26.28000069	0.8969525099	-4.613787651	-10.17904472	1.0
[LeftArm]
12	105.923996	-5.24600029	-22.32099915	20.99343491	-3.062393665	-65.42636108	1.0
13	105.923996	-5.24600029	-22.32099915	23.19938087	-4.521408558	-63.69518661	1.0
14	105.923996	-5.24600029	-22.32099915	25.64382362	-6.675774574	-61.78897476	1.0
[LeftForeArm]
12	278.414978	-0.0009999999311	0	-2.495610829e-07	-6.918125629	-0.000210567101	1.0
13	278.414978	-0.0009999999311	0	-3.17893722e-07	-6.879353523	-0.0002160517179	1.0
14	278.414978	-0.0009999999311	0	-2.598971527e-08	-7.394735813	-0.0002115004027	1.0
[LeftHand]
12	283.2879944	0	0	-2.486689806	1.61460197	6.441011429	1.0
13	283.2879944	0	0	-2.836848736	2.140054941	8.733438492	1.0
14	283.2879944	0	0	-1.76038146	2.833395243	11.92862034	1.0
[LeftHandThumb1]
12	24.6609993	-15.75	26.8239994	0.9464570284	1.151123047	0.2541034818	1.0
13	24.6609993	-15.75	26.8239994	0.9464570284	1.151123047	0.2541034818	1.0
14	24.6609993	-15.75	26.8239994	0.9464570284	1.151123047	0.2541034818	1.0
[LeftHandThumb2]
12	32.29800034	-18.64699936	18.64699936	16.62251663	1.450463891	16.89117432	1.0
13	32.29800034	-18.64699936	18.64699936	16.59190369	1.456293106	16.79221535	1.0
14	32.29800034	-18.64699936	18.64699936	16.64033318	1.779354095	16.77357483	1.0
[LeftHandThumb3]
12	26.52600098	-15.31499958	15.31499958	-3.814608812	-14.89707851	22.8012104	1.0
13	26.52600098	-15.31499958	15.31499958	-3.815981388	-14.90679169	22.77767181	1.0
14	26.52600098	-15.31499958	15.31499958	-4.157928467	-15.73105621	23.0851841	1.0
[LeftHandThumb4]
12	19.54599953	-11.28499985	11.28499985	0	0	0	1.0
13	19.54599953	-11.28499985	11.28499985	0	0	0	1.0
14	19.54599953	-11.28499985	11.28499985	0	0	0	1.0
[LeftHandIndex1]
12	91.09299469	-5.170999527	22.60099792	-1.477668405	0.3732973635	-27.26012039	1.0
13	91.09299469	-5.170999527	22.60099792	-1.509611487	0.4695065916	-27.75420761	1.0
14	91.09299469	-5.170999527	22.60099792	-1.579911232	0.7678102255	-28.9113884	1.0
[LeftHandIndex2]
12	36.76399994	0	0	-0.1287956387	1.220199943	-12.050704	1.0
13	36.76399994	0	0	-0.1289904714	1.221101284	-12.05977631	1.0
14	36.76399994	0	0	-0.129317537	1.222612262	-12.07496071	1.0
[LeftHandIndex3]
12	28.83100128	0	0	-0.13400729	1.24430871	-12.29263783	1.0
13	28.83100128	0	0	-0.1342006624	1.245222211	-12.30177116	1.0
14	28.83100128	0	0	-0.1345304847	1.246745944	-12.3170557	1.0
[LeftHandIndex4]
12	23.92700005	0	0	0	0	0	1.0
13	23.92700005	0	0	0	0	0	1.0
14	23.92700005	0	0	0	0	0	1.0
[LeftHandMiddle1]
12	95.33399963	0	0	-2.101392746	4.355065823	-32.2326088	1.0
13	95.33399963	0	0	-2.136804581	4.405200481	-32.62684631	1.0
14	95.33399963	0	0	-2.214931965	4.677860737	-33.48780823	1.0
[LeftHandMiddle2]
12	36.98199844	0	0	-0.3043030798	1.861039877	-18.57160568	1.0
13	36.98199844	0	0	-0.304358542	1.861189127	-18.57318306	1.0
14	36.98199844	0	0	-0.3045489192	1.861739159	-18.57892036	1.0
[LeftHandMiddle3]
12	29.50900078	0	0	-0.1099221632	1.128149748	-11.12930393	1.0
13	29.50900078	0	0	-0.109953329	1.128313065	-11.13090611	1.0
14	29.50900078	0	0	-0.1100625694	1.128883004	-11.13660622	1.0
[LeftHandMiddle4]
12	28.3390007	0	0	0	0	0	1.0
13	28.3390007	0	0	0	0	0	1.0
14	28.3390007	0	0	0	0	0	1.0
[LeftHandRing1]
12	91.04499817	-0.4390000105	-18.65100098	-2.272926569	7.547431469	-34.15231323	1.0
13	91.04499817	-0.4390000105	-18.65100098	-2.29669261	7.543400764	-34.41085434	1.0
14	91.04499817	-0.4390000105	-18.65100098	-2.37644577	7.694267273	-35.27415085	1.0
[LeftHandRing2]
12	31.54000092	0	0	-0.4631674886	2.279643536	-22.96676064	1.0
13	31.54000092	0	0	-0.4636434019	2.280771494	-22.97876549	1.0
14	31.54000092	0	0	-0.4646989703	2.283257008	-23.00528145	1.0
[LeftHandRing3]
12	29.37700081	0	0	-0.3320881426	1.941702127	-19.40875435	1.0
13	29.37700081	0	0	-0.3325002193	1.942871213	-19.4209404	1.0
14	29.37700081	0	0	-0.3333813846	1.945365071	-19.44689751	1.0
[LeftHandRing4]
12	26.47500038	0	0	0	0	0	1.0
13	26.47500038	0	0	0	0	0	1.0
14	26.47500038	0	0	0	0	0	1.0
[LeftHandPinky1]
12	80.77799988	-4.887000084	-38.06099701	-2.590772867	4.549777508	-37.501194	1.0
13	80.77799988	-4.887000084	-38.06099701	-2.592302561	4.583450317	-37.52226639	1.0
14	80.77799988	-4.887000084	-38.06099701	-2.612928867	4.941487789	-37.70938492	1.0
[LeftHandPinky2]
12	36	0	0	-0.485725522	2.332103729	-23.52734756	1.0
13	36	0	0	-0.4873144925	2.335752487	-23.56639671	1.0
14	36	0	0	-0.4905275702	2.343090296	-23.64504242	1.0
[LeftHandPinky3]
12	21.14200211	0	0	-0.2090667784	1.549098372	-15.37155342	1.0
13	21.14200211	0	0	-0.2101302594	1.552955508	-15.41080666	1.0
14	21.14200211	0	0	-0.2122994661	1.560803771	-15.49065304	1.0
[LeftHandPinky4]
12	19.75699997	0	0	0	0	0	1.0
13	19.75699997	0	0	0	0	0	1.0
14	19.75699997	0	0	0	0	0	1.0
[RightShoulder]
12	-45.70000076	109.4620056	-26.28000069	0.09847272187	4.985612869	8.903548241	1.0
13	-45.70000076	109.4620056	-26.28000069	0.2364189923	4.325845718	8.660778046	1.0
14	-45.70000076	109.4620056	-26.28000069	0.3863324523	3.221318722	8.447957993	1.0
[RightArm]
12	-105.9280014	-5.248000145	-22.32099915	15.25717354	15.75593281	68.9841156	1.0
13	-105.9280014	-5.248000145	-22.32099915	16.2695179	15.69899178	70.38863373	1.0
14	-105.9280014	-5.248000145	-22.32099915	17.34123802	15.17088413	71.12007904	1.0
[RightForeArm]
12	-278.414978	0	0	-5.731918463e-06	33.36442566	-1.909212415e-06	1.0
13	-278.414978	0	0	-2.048827355e-06	34.27146912	-9.738240578e-07	1.0
14	-278.414978	0	0	5.277594937e-06	34.66091156	1.545018131e-05	1.0
[RightHand]
12	-283.2879944	0	0.0009999999311	9.007931709	19.03266335	-3.069210768	1.0
13	-283.2879944	0	0.0009999999311	8.869244576	23.43508339	-4.239826202	1.0
14	-283.2879944	0	0.0009999999311	9.457223892	25.99843788	-4.907134533	1.0
[RightHandPinky1]
12	-80.76699829	-4.885000229	-38.06000137	-1.624368668	-2.779534578	28.53629875	1.0
13	-80.76699829	-4.885000229	-38.06000137	-1.616071582	-3.157192945	28.41854668	1.0
14	-80.76699829	-4.885000229	-38.06000137	-1.622417808	-3.328341007	28.50246048	1.0
[RightHandPinky2]
12	-36	0	0.0009999999311	-0.3687580228	-1.812478065	23.01741409	1.0
13	-36	0	0.0009999999311	-0.3614084125	-1.795127034	22.78466797	1.0
14	-36	0	0.0009999999311	-0.3616998494	-1.79580915	22.79388809	1.0
[RightHandPinky3]
12	-21.14200211	0	0	-0.4224435389	-1.934033036	24.6403389	1.0
13	-21.14200211	0	0	-0.4159384668	-1.919805884	24.4469986	1.0
14	-21.14200211	0	0	-0.4146645367	-1.917005301	24.40896988	1.0
[RightHandPinky4]
12	-19.75699997	0	0	0	0	0	1.0
13	-19.75699997	0	0	0	0	0	1.0
14	-19.75699997	0	0	0	0	0	1.0
[RightHandRing1]
12	-91.03599548	-0.4390000105	-18.65100098	-1.743915558	-3.082504272	30.3365078	1.0
13	-91.03599548	-0.4390000105	-18.65100098	-1.694372177	-3.280638218	29.67914391	1.0
14	-91.03599548	-0.4390000105	-18.65100098	-1.713525653	-3.268297911	29.93309402	1.0
[RightHandRing2]
12	-31.54000092	0	0	-0.6768078208	-2.412316799	31.34105492	1.0
13	-31.54000092	0	0	-0.6772267222	-2.41300106	31.3510704	1.0
14	-31.54000092	0	0	-0.6835283637	-2.423262596	31.50000191	1.0
[RightHandRing3]
12	-29.37700081	0	0	-0.7532277703	-2.533407927	33.11190033	1.0
13	-29.37700081	0	0	-0.7536888719	-2.534092665	33.12200928	1.0
14	-29.37700081	0	0	-0.7603948116	-2.544313192	33.27313232	1.0
[RightHandRing4]
12	-26.47500038	0	0	0	0	0	1.0
13	-26.47500038	0	0	0	0	0	1.0
14	-26.47500038	0	0	0	0	0	1.0
[RightHandMiddle1]
12	-95.32500458	0	0	-1.98205924	-1.605849266	33.4697876	1.0
13	-95.32500458	0	0	-1.949530244	-1.568674207	33.05688858	1.0
14	-95.32500458	0	0	-1.990983725	-1.423915982	33.58971405	1.0
[RightHandMiddle2]
12	-36.98199844	0	0	-0.4351456761	-1.961509705	25.01440048	1.0
13	-36.98199844	0	0	-0.4350174367	-1.961231112	25.01058006	1.0
14	-36.98199844	0	0	-0.4398721755	-1.971578598	25.15190697	1.0
[RightHandMiddle3]
12	-29.50900078	0	0	-0.3027285039	-1.650376916	20.81177902	1.0
13	-29.50900078	0	0	-0.3026024699	-1.650093675	20.80788612	1.0
14	-29.50900078	0	0	-0.3067310452	-1.660879254	20.95061874	1.0
[RightHandMiddle4]
12	-28.3390007	0	0.0009999999311	0	0	0	1.0
13	-28.3390007	0	0.0009999999311	0	0	0	1.0
14	-28.3390007	0	0.0009999999311	0	0	0	1.0
[RightHandIndex1]
12	-91.08300018	-5.167999744	22.60099792	-0.917609632	6.650705814	20.25896263	1.0
13	-91.08300018	-5.167999744	22.60099792	-0.8298758864	6.763115883	18.89089584	1.0
14	-91.08300018	-5.167999744	22.60099792	-0.8172153831	6.860445976	18.57311821	1.0
[RightHandIndex2]
12	-36.76399994	0	0	-0.567327559	-2.222764492	28.63421059	1.0
13	-36.76399994	0	0	-0.5678421259	-2.223692179	28.64744568	1.0
14	-36.76399994	0	0	-0.5699452162	-2.227513075	28.70142746	1.0
[RightHandIndex3]
12	-28.83100128	0	0	-0.2327573597	-1.450999737	18.22455215	1.0
13	-28.83100128	0	0	-0.2330876887	-1.452032804	18.23792839	1.0
14	-28.83100128	0	0	-0.2344659716	-1.456230283	18.29243851	1.0
[RightHandIndex4]
12	-23.92700005	0	0	0	0	0	1.0
13	-23.92700005	0	0	0	0	0	1.0
14	-23.92700005	0	0	0	0	0	1.0
[RightHandThumb1]
12	-24.64799881	-15.72700024	26.82600021	30.15343666	21.14214134	-10.25145817	1.0
13	-24.64799881	-15.72700024	26.82600021	30.15343666	21.14214134	-10.25145817	1.0
14	-24.64799881	-15.72700024	26.82600021	30.15343666	21.14214134	-10.25145817	1.0
[RightHandThumb2]
12	-32.29800034	-18.64699936	18.64699936	11.61897755	-18.09993362	0.9180080891	1.0
13	-32.29800034	-18.64699936	18.64699936	11.39625263	-17.89945984	0.5514212847	1.0
14	-32.29800034	-18.64699936	18.64699936	10.79166031	-19.2546978	0.2937746346	1.0
[RightHandThumb3]
12	-26.52600098	-15.31399918	15.31399918	-11.86429691	-13.63123226	-10.3408165	1.0
13	-26.52600098	-15.31399918	15.31399918	-11.8223114	-13.7280302	-10.31407166	1.0
14	-26.52600098	-15.31399918	15.31399918	-11.79171467	-13.79866123	-10.29457378	1.0
[RightHandThumb4]
12	-19.54599953	-11.28499985	11.28499985	0	0	0	1.0
13	-19.54599953	-11.28499985	11.28499985	0	0	0	1.0
14	-19.54599953	-11.28499985	11.28499985	0	0	0	1.0
[LeftUpLeg]
12	82.07800293	-67.51699829	-15.99599934	-45.95623016	8.710691452	1.386362195	1.0
13	82.07800293	-67.51699829	-15.99599934	-43.03190231	8.391162872	-1.375041723	1.0
14	82.07800293	-67.51699829	-15.99599934	-38.47123718	7.847012997	-3.409023046	1.0
[LeftLeg]
12	0	-443.7049866	2.845999956	41.6830101	-0.5544462204	-0.4593523145	1.0
13	0	-443.7049866	2.845999956	43.69758987	-0.1177782863	-0.2169605345	1.0
14	0	-443.7049866	2.845999956	42.43812561	-0.1080319434	-0.2906914353	1.0
[LeftFoot]
12	0	-444.2789917	-29.8219986	-1.567475677	0.2828384638	-3.022591829	1.0
13	0	-444.2789917	-29.8219986	-6.505624771	0.1947091073	-1.317826509	1.0
14	0	-444.2789917	-29.8219986	-9.67136097	0.3100055158	0.3547518551	1.0
[LeftToeBase]
12	0	-87.28699493	107.1060028	-8.628697395	-1.944320866e-05	-1.677125169e-06	1.0
13	0	-87.28699493	107.1060028	-8.677900314	6.485803624e-06	-1.291633566e-06	1.0
14	0	-87.28699493	107.1060028	-8.826455116	9.543253327e-06	-2.967835755e-08	1.0
[RightUpLeg]
12	-82.07800293	-67.51699829	-15.99599934	-3.304539919	-2.21568346	-21.25834274	1.0
13	-82.07800293	-67.51699829	-15.99599934	-11.2278223	1.471852541	-20.77091026	1.0
14	-82.07800293	-67.51699829	-15.99599934	-18.26768112	2.573086977	-18.50470543	1.0
[RightLeg]
12	0	-443.7049866	2.861999989	47.04065323	6.07639122	6.832151413	1.0
13	0	-443.7049866	2.861999989	60.69813919	3.689228535	6.568100929	1.0
14	0	-443.7049866	2.861999989	69.13583374	2.682160616	7.730003834	1.0
[RightFoot]
12	0	-444.2770081	-29.83799934	8.680703163	0.8360191584	5.525390625	1.0
13	0	-444.2770081	-29.83799934	12.40852547	-0.7795288563	2.756488085	1.0
14	0	-444.2770081	-29.83799934	10.12097454	0.05821244791	1.290199757	1.0
[RightToeBase]
12	0	-87.28699493	107.1060028	-17.32135963	0.2759615779	0.6107292175	1.0
13	0	-87.28699493	107.1060028	-12.06015778	-0.07950854301	-0.1765244454	1.0
14	0	-87.28699493	107.1060028	-10.72707558	-3.141622756e-06	5.670556789e-07	1.0
[EndOfFile]
